<svg width="41" height="41" viewBox="0 0 41 41" fill="none" xmlns="http://www.w3.org/2000/svg">
<mask id="mask0_415_49" style="mask-type:luminance" maskUnits="userSpaceOnUse" x="0" y="0" width="41" height="41">
<path d="M0.405762 0.0999756H40.5938V40.9H0.405762V0.0999756Z" fill="white"/>
</mask>
<g mask="url(#mask0_415_49)">
<path d="M26.5698 15.4978L20.4998 40.8522L14.4297 15.4978H26.5698ZM10.9744 15.4978L19.0303 37.2833L13.8119 15.4978H10.9744ZM10.2371 15.4978L1.75514 9.27152L19.0181 38.9923L10.3566 15.4978H10.2371ZM30.6307 15.4978L21.9814 38.9923L39.2444 9.27152L30.7449 15.4978H30.6307ZM27.176 15.4978L21.9575 37.2833L30.007 15.4978H27.176ZM27.3199 14.8975H30.5468L30.7869 14.7237L39.994 7.96358L40.5938 7.52583L40.3536 7.35211L30.8108 0.376269L29.0954 7.53805L27.3199 14.8975ZM14.2735 14.8975H26.7138L28.4775 7.53805L30.2349 0.165894H10.7646L12.522 7.53805L14.2735 14.8975ZM1.00554 7.96358L10.2126 14.7237L10.4528 14.8975H13.6679L11.9041 7.53805L10.1887 0.376269L0.645887 7.3638L0.405762 7.53805L1.00554 7.96358Z" fill="#007BFF"/>
</g>
</svg>
